<?xml version="1.0" standalone="no"?><!DOCTYPE svg PUBLIC "-//W3C//DTD SVG 1.1//EN" "http://www.w3.org/Graphics/SVG/1.1/DTD/svg11.dtd"><svg t="1774492231581" class="icon" viewBox="0 0 1024 1024" version="1.1" xmlns="http://www.w3.org/2000/svg" p-id="4976" xmlns:xlink="http://www.w3.org/1999/xlink" width="256" height="256"><path d="M516.309333 993.749333l379.349334-189.653333a78.762667 78.762667 0 0 0 43.605333-70.442667V290.474667a78.762667 78.762667 0 0 0-43.605333-70.442667L516.309333 30.293333a81.066667 81.066667 0 0 0-71.338666 0l-379.306667 189.738667A78.762667 78.762667 0 0 0 22.058667 290.474667v442.666666a78.848 78.848 0 0 0 43.605333 70.442667l379.306667 189.696a79.616 79.616 0 0 0 71.338666 0.469333z" fill="#404040" p-id="4977"></path><path d="M796.501333 501.205333a205.482667 205.482667 0 1 0-205.482666-205.482666 205.482667 205.482667 0 0 0 205.482666 205.482666z" fill="#737373" p-id="4978"></path><path d="M148.053333 671.317333l-40.234666-20.096v-118.826666c0-34.986667 19.584-69.461333 59.733333-65.152a103.936 103.936 0 0 1 76.202667 59.733333 51.584 51.584 0 0 1 45.952-12.416 129.962667 129.962667 0 0 1 98.645333 137.898667v139.946666l-44.032-22.058666v-131.029334a70.357333 70.357333 0 0 0-55.125333-74.24c-12.8-1.450667-24.362667 9.045333-24.874667 31.616s0 133.717333 0 133.717334l-40.234667-20.138667V586.24c0-55.125333-35.456-72.533333-50.773333-73.813333-8.533333-0.938667-24.874667 4.266667-24.874667 32.597333-0.469333 23.509333-0.469333 126.464-0.469333 126.464z" fill="#d4d4d4" p-id="4979"></path></svg>
